<svg width="114" height="55" viewBox="0 0 114 55" fill="none" xmlns="http://www.w3.org/2000/svg">
<path d="M19.5 15.4059C21.5193 15.4059 23.1562 13.7689 23.1562 11.7496C23.1562 9.73035 21.5193 8.09339 19.5 8.09339C17.4807 8.09339 15.8438 9.73035 15.8438 11.7496C15.8438 13.7689 17.4807 15.4059 19.5 15.4059Z" stroke="#1D609E" stroke-width="3" stroke-linecap="round" stroke-linejoin="round"/>
<path d="M26.3945 18.6441L21.2233 23.8153C20.7663 24.2718 20.1466 24.5283 19.5006 24.5283C18.8546 24.5283 18.235 24.2718 17.7779 23.8153L12.6055 18.6441C11.242 17.2805 10.3135 15.5432 9.93731 13.6519C9.56115 11.7606 9.75426 9.80027 10.4922 8.01872C11.2302 6.23717 12.4799 4.71446 14.0832 3.64314C15.6866 2.57181 17.5717 2 19.5 2C21.4283 2 23.3134 2.57181 24.9168 3.64314C26.5201 4.71446 27.7698 6.23717 28.5078 8.01872C29.2457 9.80027 29.4389 11.7606 29.0627 13.6519C28.6865 15.5432 27.758 17.2805 26.3945 18.6441Z" stroke="#2684DA" stroke-width="3" stroke-linecap="round" stroke-linejoin="round"/>
<path d="M32.5 50.75C34.2875 50.75 35.7337 49.2875 35.7337 47.5L35.75 31.25C35.75 29.4625 34.2875 28 32.5 28H6.5C4.7125 28 3.25 29.4625 3.25 31.25V47.5C3.25 49.2875 4.7125 50.75 6.5 50.75H1.625C0.73125 50.75 0 51.4812 0 52.375C0 53.2688 0.73125 54 1.625 54H37.375C38.2688 54 39 53.2688 39 52.375C39 51.4812 38.2688 50.75 37.375 50.75H32.5ZM8.125 31.25H30.875C31.7688 31.25 32.5 31.9812 32.5 32.875V45.875C32.5 46.7688 31.7688 47.5 30.875 47.5H8.125C7.23125 47.5 6.5 46.7688 6.5 45.875V32.875C6.5 31.9812 7.23125 31.25 8.125 31.25Z" fill="#1D609E"/>
<path d="M42.56 18C42.4747 18 42.3947 17.968 42.32 17.904C42.256 17.84 42.224 17.76 42.224 17.664C42.224 17.6213 42.2347 17.5733 42.256 17.52L46.112 7.2C46.144 7.09333 46.2027 7.00267 46.288 6.928C46.384 6.84267 46.512 6.8 46.672 6.8H48.416C48.576 6.8 48.6987 6.84267 48.784 6.928C48.8693 7.00267 48.9333 7.09333 48.976 7.2L52.832 17.52C52.8427 17.5733 52.848 17.6213 52.848 17.664C52.848 17.76 52.816 17.84 52.752 17.904C52.688 17.968 52.6133 18 52.528 18H51.136C50.9867 18 50.8747 17.968 50.8 17.904C50.736 17.8293 50.6933 17.76 50.672 17.696L49.92 15.744H45.168L44.416 17.696C44.3947 17.76 44.3467 17.8293 44.272 17.904C44.208 17.968 44.1013 18 43.952 18H42.56ZM45.728 13.904H49.36L47.536 8.96L45.728 13.904ZM56.968 18.16C56.4133 18.16 55.9227 18.0693 55.496 17.888C55.08 17.696 54.7333 17.4293 54.456 17.088C54.1787 16.7467 53.9653 16.3467 53.816 15.888C53.6667 15.4187 53.5813 14.9067 53.56 14.352C53.5493 14.16 53.544 13.9893 53.544 13.84C53.544 13.68 53.5493 13.504 53.56 13.312C53.5813 12.7787 53.6613 12.2827 53.8 11.824C53.9493 11.3653 54.1627 10.9653 54.44 10.624C54.728 10.272 55.08 10 55.496 9.808C55.9227 9.616 56.4133 9.52 56.968 9.52C57.544 9.52 58.0293 9.62133 58.424 9.824C58.8293 10.016 59.1653 10.2667 59.432 10.576V7.024C59.432 6.91733 59.464 6.82667 59.528 6.752C59.6027 6.67733 59.6987 6.64 59.816 6.64H61.176C61.2827 6.64 61.3733 6.67733 61.448 6.752C61.5227 6.82667 61.56 6.91733 61.56 7.024V17.616C61.56 17.7227 61.5227 17.8133 61.448 17.888C61.3733 17.9627 61.2827 18 61.176 18H59.912C59.7947 18 59.6987 17.9627 59.624 17.888C59.56 17.8133 59.528 17.7227 59.528 17.616V17.024C59.2613 17.3547 58.92 17.6267 58.504 17.84C58.0987 18.0533 57.5867 18.16 56.968 18.16ZM57.56 16.448C58.008 16.448 58.3653 16.3467 58.632 16.144C58.8987 15.9413 59.096 15.6853 59.224 15.376C59.352 15.056 59.4213 14.7307 59.432 14.4C59.4427 14.208 59.448 14.0053 59.448 13.792C59.448 13.568 59.4427 13.36 59.432 13.168C59.4213 12.848 59.3467 12.544 59.208 12.256C59.0693 11.9573 58.8667 11.712 58.6 11.52C58.3333 11.328 57.9867 11.232 57.56 11.232C57.112 11.232 56.7547 11.3333 56.488 11.536C56.232 11.728 56.0453 11.984 55.928 12.304C55.8107 12.624 55.7413 12.976 55.72 13.36C55.7093 13.68 55.7093 14 55.72 14.32C55.7413 14.704 55.8107 15.056 55.928 15.376C56.0453 15.696 56.232 15.9573 56.488 16.16C56.7547 16.352 57.112 16.448 57.56 16.448ZM66.6045 18.16C66.0498 18.16 65.5592 18.0693 65.1325 17.888C64.7165 17.696 64.3698 17.4293 64.0925 17.088C63.8152 16.7467 63.6018 16.3467 63.4525 15.888C63.3032 15.4187 63.2178 14.9067 63.1965 14.352C63.1858 14.16 63.1805 13.9893 63.1805 13.84C63.1805 13.68 63.1858 13.504 63.1965 13.312C63.2178 12.7787 63.2978 12.2827 63.4365 11.824C63.5858 11.3653 63.7992 10.9653 64.0765 10.624C64.3645 10.272 64.7165 10 65.1325 9.808C65.5592 9.616 66.0498 9.52 66.6045 9.52C67.1805 9.52 67.6658 9.62133 68.0605 9.824C68.4658 10.016 68.8018 10.2667 69.0685 10.576V7.024C69.0685 6.91733 69.1005 6.82667 69.1645 6.752C69.2392 6.67733 69.3352 6.64 69.4525 6.64H70.8125C70.9192 6.64 71.0098 6.67733 71.0845 6.752C71.1592 6.82667 71.1965 6.91733 71.1965 7.024V17.616C71.1965 17.7227 71.1592 17.8133 71.0845 17.888C71.0098 17.9627 70.9192 18 70.8125 18H69.5485C69.4312 18 69.3352 17.9627 69.2605 17.888C69.1965 17.8133 69.1645 17.7227 69.1645 17.616V17.024C68.8978 17.3547 68.5565 17.6267 68.1405 17.84C67.7352 18.0533 67.2232 18.16 66.6045 18.16ZM67.1965 16.448C67.6445 16.448 68.0018 16.3467 68.2685 16.144C68.5352 15.9413 68.7325 15.6853 68.8605 15.376C68.9885 15.056 69.0578 14.7307 69.0685 14.4C69.0792 14.208 69.0845 14.0053 69.0845 13.792C69.0845 13.568 69.0792 13.36 69.0685 13.168C69.0578 12.848 68.9832 12.544 68.8445 12.256C68.7058 11.9573 68.5032 11.712 68.2365 11.52C67.9698 11.328 67.6232 11.232 67.1965 11.232C66.7485 11.232 66.3912 11.3333 66.1245 11.536C65.8685 11.728 65.6818 11.984 65.5645 12.304C65.4472 12.624 65.3778 12.976 65.3565 13.36C65.3458 13.68 65.3458 14 65.3565 14.32C65.3778 14.704 65.4472 15.056 65.5645 15.376C65.6818 15.696 65.8685 15.9573 66.1245 16.16C66.3912 16.352 66.7485 16.448 67.1965 16.448ZM73.537 18C73.4303 18 73.3397 17.9627 73.265 17.888C73.1903 17.8133 73.153 17.7227 73.153 17.616V10.08C73.153 9.96267 73.1903 9.86667 73.265 9.792C73.3397 9.71733 73.4303 9.68 73.537 9.68H74.833C74.9397 9.68 75.0303 9.71733 75.105 9.792C75.1903 9.86667 75.233 9.96267 75.233 10.08V10.736C75.4783 10.3947 75.793 10.1333 76.177 9.952C76.5717 9.77067 77.025 9.68 77.537 9.68H78.193C78.3103 9.68 78.401 9.71733 78.465 9.792C78.5397 9.86667 78.577 9.95733 78.577 10.064V11.216C78.577 11.3227 78.5397 11.4133 78.465 11.488C78.401 11.5627 78.3103 11.6 78.193 11.6H76.945C76.433 11.6 76.033 11.744 75.745 12.032C75.4677 12.32 75.329 12.7147 75.329 13.216V17.616C75.329 17.7227 75.2917 17.8133 75.217 17.888C75.1423 17.9627 75.0463 18 74.929 18H73.537ZM83.1235 18.16C81.9395 18.16 81.0008 17.8187 80.3075 17.136C79.6142 16.4533 79.2408 15.4827 79.1875 14.224C79.1768 14.1173 79.1715 13.984 79.1715 13.824C79.1715 13.6533 79.1768 13.52 79.1875 13.424C79.2302 12.624 79.4115 11.9307 79.7315 11.344C80.0622 10.7573 80.5155 10.3093 81.0915 10C81.6675 9.68 82.3448 9.52 83.1235 9.52C83.9875 9.52 84.7128 9.70133 85.2995 10.064C85.8862 10.416 86.3288 10.912 86.6275 11.552C86.9262 12.1813 87.0755 12.912 87.0755 13.744V14.08C87.0755 14.1867 87.0382 14.2773 86.9635 14.352C86.8888 14.4267 86.7928 14.464 86.6755 14.464H81.3635C81.3635 14.464 81.3635 14.48 81.3635 14.512C81.3635 14.544 81.3635 14.5707 81.3635 14.592C81.3742 14.9653 81.4435 15.312 81.5715 15.632C81.7102 15.9413 81.9075 16.192 82.1635 16.384C82.4302 16.576 82.7448 16.672 83.1075 16.672C83.4062 16.672 83.6568 16.6293 83.8595 16.544C84.0622 16.448 84.2275 16.3413 84.3555 16.224C84.4835 16.1067 84.5742 16.0107 84.6275 15.936C84.7235 15.808 84.7982 15.7333 84.8515 15.712C84.9155 15.68 85.0062 15.664 85.1235 15.664H86.4995C86.6062 15.664 86.6915 15.696 86.7555 15.76C86.8302 15.824 86.8622 15.904 86.8515 16C86.8408 16.1707 86.7502 16.3787 86.5795 16.624C86.4195 16.8693 86.1848 17.1093 85.8755 17.344C85.5662 17.5787 85.1768 17.776 84.7075 17.936C84.2488 18.0853 83.7208 18.16 83.1235 18.16ZM81.3635 13.12H84.8995V13.072C84.8995 12.656 84.8302 12.2933 84.6915 11.984C84.5528 11.6747 84.3502 11.4293 84.0835 11.248C83.8168 11.0667 83.4968 10.976 83.1235 10.976C82.7502 10.976 82.4302 11.0667 82.1635 11.248C81.8968 11.4293 81.6942 11.6747 81.5555 11.984C81.4275 12.2933 81.3635 12.656 81.3635 13.072V13.12ZM91.7499 18.16C91.1099 18.16 90.5605 18.0853 90.1019 17.936C89.6539 17.7867 89.2859 17.6 88.9979 17.376C88.7099 17.152 88.4965 16.928 88.3579 16.704C88.2192 16.48 88.1445 16.2933 88.1339 16.144C88.1232 16.0267 88.1552 15.936 88.2299 15.872C88.3152 15.7973 88.4059 15.76 88.5019 15.76H89.7659C89.8085 15.76 89.8459 15.7653 89.8779 15.776C89.9099 15.7867 89.9525 15.8187 90.0059 15.872C90.1445 15.9893 90.2885 16.112 90.4379 16.24C90.5979 16.368 90.7845 16.48 90.9979 16.576C91.2112 16.6613 91.4779 16.704 91.7979 16.704C92.2139 16.704 92.5605 16.624 92.8379 16.464C93.1259 16.2933 93.2699 16.0533 93.2699 15.744C93.2699 15.52 93.2059 15.3387 93.0779 15.2C92.9605 15.0613 92.7365 14.9387 92.4059 14.832C92.0752 14.7147 91.6059 14.592 90.9979 14.464C90.4005 14.3253 89.9045 14.1493 89.5099 13.936C89.1152 13.7227 88.8219 13.456 88.6299 13.136C88.4379 12.816 88.3419 12.4427 88.3419 12.016C88.3419 11.6 88.4645 11.2053 88.7099 10.832C88.9659 10.448 89.3392 10.1333 89.8299 9.888C90.3312 9.64267 90.9499 9.52 91.6859 9.52C92.2619 9.52 92.7632 9.59467 93.1899 9.744C93.6165 9.88267 93.9685 10.0587 94.2459 10.272C94.5339 10.4853 94.7525 10.704 94.9019 10.928C95.0512 11.1413 95.1312 11.328 95.1419 11.488C95.1525 11.6053 95.1205 11.7013 95.0459 11.776C94.9712 11.84 94.8859 11.872 94.7899 11.872H93.6059C93.5525 11.872 93.5045 11.8613 93.4619 11.84C93.4192 11.8187 93.3765 11.792 93.3339 11.76C93.2165 11.6533 93.0885 11.5413 92.9499 11.424C92.8112 11.3067 92.6405 11.2053 92.4379 11.12C92.2459 11.024 91.9899 10.976 91.6699 10.976C91.2645 10.976 90.9552 11.0667 90.7419 11.248C90.5285 11.4187 90.4219 11.6373 90.4219 11.904C90.4219 12.0853 90.4699 12.2453 90.5659 12.384C90.6725 12.512 90.8805 12.6347 91.1899 12.752C91.4992 12.8693 91.9685 12.992 92.5979 13.12C93.3125 13.248 93.8779 13.44 94.2939 13.696C94.7205 13.9413 95.0192 14.2293 95.1899 14.56C95.3712 14.88 95.4619 15.2373 95.4619 15.632C95.4619 16.112 95.3179 16.544 95.0299 16.928C94.7525 17.312 94.3365 17.616 93.7819 17.84C93.2379 18.0533 92.5605 18.16 91.7499 18.16ZM100.09 18.16C99.4495 18.16 98.9002 18.0853 98.4415 17.936C97.9935 17.7867 97.6255 17.6 97.3375 17.376C97.0495 17.152 96.8362 16.928 96.6975 16.704C96.5588 16.48 96.4842 16.2933 96.4735 16.144C96.4628 16.0267 96.4948 15.936 96.5695 15.872C96.6548 15.7973 96.7455 15.76 96.8415 15.76H98.1055C98.1482 15.76 98.1855 15.7653 98.2175 15.776C98.2495 15.7867 98.2922 15.8187 98.3455 15.872C98.4842 15.9893 98.6282 16.112 98.7775 16.24C98.9375 16.368 99.1242 16.48 99.3375 16.576C99.5508 16.6613 99.8175 16.704 100.138 16.704C100.554 16.704 100.9 16.624 101.178 16.464C101.466 16.2933 101.61 16.0533 101.61 15.744C101.61 15.52 101.546 15.3387 101.418 15.2C101.3 15.0613 101.076 14.9387 100.746 14.832C100.415 14.7147 99.9455 14.592 99.3375 14.464C98.7402 14.3253 98.2442 14.1493 97.8495 13.936C97.4548 13.7227 97.1615 13.456 96.9695 13.136C96.7775 12.816 96.6815 12.4427 96.6815 12.016C96.6815 11.6 96.8042 11.2053 97.0495 10.832C97.3055 10.448 97.6788 10.1333 98.1695 9.888C98.6708 9.64267 99.2895 9.52 100.026 9.52C100.602 9.52 101.103 9.59467 101.53 9.744C101.956 9.88267 102.308 10.0587 102.586 10.272C102.874 10.4853 103.092 10.704 103.242 10.928C103.391 11.1413 103.471 11.328 103.482 11.488C103.492 11.6053 103.46 11.7013 103.386 11.776C103.311 11.84 103.226 11.872 103.13 11.872H101.946C101.892 11.872 101.844 11.8613 101.802 11.84C101.759 11.8187 101.716 11.792 101.674 11.76C101.556 11.6533 101.428 11.5413 101.29 11.424C101.151 11.3067 100.98 11.2053 100.778 11.12C100.586 11.024 100.33 10.976 100.01 10.976C99.6042 10.976 99.2948 11.0667 99.0815 11.248C98.8682 11.4187 98.7615 11.6373 98.7615 11.904C98.7615 12.0853 98.8095 12.2453 98.9055 12.384C99.0122 12.512 99.2202 12.6347 99.5295 12.752C99.8388 12.8693 100.308 12.992 100.938 13.12C101.652 13.248 102.218 13.44 102.634 13.696C103.06 13.9413 103.359 14.2293 103.53 14.56C103.711 14.88 103.802 15.2373 103.802 15.632C103.802 16.112 103.658 16.544 103.37 16.928C103.092 17.312 102.676 17.616 102.122 17.84C101.578 18.0533 100.9 18.16 100.09 18.16ZM43.648 35C43.5307 35 43.4347 34.9627 43.36 34.888C43.2853 34.8133 43.248 34.7227 43.248 34.616V24.2C43.248 24.0827 43.2853 23.9867 43.36 23.912C43.4347 23.8373 43.5307 23.8 43.648 23.8H44.912C45.0613 23.8 45.1733 23.8427 45.248 23.928C45.3227 24.0027 45.3707 24.0613 45.392 24.104L48.48 29.864L51.6 24.104C51.6213 24.0613 51.6693 24.0027 51.744 23.928C51.8187 23.8427 51.9307 23.8 52.08 23.8H53.328C53.4453 23.8 53.5413 23.8373 53.616 23.912C53.6907 23.9867 53.728 24.0827 53.728 24.2V34.616C53.728 34.7227 53.6907 34.8133 53.616 34.888C53.5413 34.9627 53.4453 35 53.328 35H51.984C51.8667 35 51.7707 34.9627 51.696 34.888C51.632 34.8133 51.6 34.7227 51.6 34.616V27.688L49.36 31.96C49.3067 32.056 49.2373 32.1413 49.152 32.216C49.0667 32.28 48.9547 32.312 48.816 32.312H48.16C48.0107 32.312 47.8933 32.28 47.808 32.216C47.7333 32.1413 47.6693 32.056 47.616 31.96L45.376 27.688V34.616C45.376 34.7227 45.3387 34.8133 45.264 34.888C45.1893 34.9627 45.0987 35 44.992 35H43.648ZM58.2648 35.16C57.7101 35.16 57.2088 35.0533 56.7608 34.84C56.3128 34.616 55.9554 34.3227 55.6888 33.96C55.4328 33.5867 55.3048 33.1707 55.3048 32.712C55.3048 31.9653 55.6034 31.3733 56.2008 30.936C56.8088 30.488 57.6088 30.1893 58.6008 30.04L60.7928 29.72V29.384C60.7928 28.936 60.6808 28.5893 60.4568 28.344C60.2328 28.0987 59.8488 27.976 59.3048 27.976C58.9208 27.976 58.6061 28.056 58.3608 28.216C58.1261 28.3653 57.9501 28.568 57.8328 28.824C57.7474 28.9627 57.6248 29.032 57.4648 29.032H56.2008C56.0834 29.032 55.9928 29 55.9288 28.936C55.8754 28.872 55.8488 28.7867 55.8488 28.68C55.8594 28.5093 55.9288 28.3013 56.0568 28.056C56.1848 27.8107 56.3874 27.576 56.6648 27.352C56.9421 27.1173 57.2994 26.92 57.7368 26.76C58.1741 26.6 58.7021 26.52 59.3208 26.52C59.9928 26.52 60.5581 26.6053 61.0168 26.776C61.4861 26.936 61.8594 27.1547 62.1368 27.432C62.4141 27.7093 62.6168 28.0347 62.7448 28.408C62.8728 28.7813 62.9368 29.176 62.9368 29.592V34.616C62.9368 34.7227 62.8994 34.8133 62.8248 34.888C62.7501 34.9627 62.6594 35 62.5528 35H61.2568C61.1394 35 61.0434 34.9627 60.9688 34.888C60.9048 34.8133 60.8728 34.7227 60.8728 34.616V33.992C60.7341 34.1947 60.5474 34.3867 60.3128 34.568C60.0781 34.7387 59.7901 34.8827 59.4488 35C59.1181 35.1067 58.7234 35.16 58.2648 35.16ZM58.8088 33.64C59.1821 33.64 59.5181 33.56 59.8168 33.4C60.1261 33.24 60.3661 32.9947 60.5368 32.664C60.7181 32.3227 60.8088 31.896 60.8088 31.384V31.048L59.2088 31.304C58.5794 31.4 58.1101 31.5547 57.8008 31.768C57.4914 31.9813 57.3368 32.2427 57.3368 32.552C57.3368 32.7867 57.4061 32.9893 57.5448 33.16C57.6941 33.32 57.8808 33.4427 58.1048 33.528C58.3288 33.6027 58.5634 33.64 58.8088 33.64ZM68.4953 35C67.8553 35 67.3166 34.888 66.8793 34.664C66.4419 34.44 66.1166 34.1093 65.9033 33.672C65.6899 33.224 65.5833 32.6693 65.5833 32.008V28.376H64.3193C64.2126 28.376 64.1219 28.3387 64.0473 28.264C63.9726 28.1893 63.9353 28.0987 63.9353 27.992V27.064C63.9353 26.9573 63.9726 26.8667 64.0473 26.792C64.1219 26.7173 64.2126 26.68 64.3193 26.68H65.5833V24.024C65.5833 23.9173 65.6153 23.8267 65.6793 23.752C65.7539 23.6773 65.8499 23.64 65.9673 23.64H67.2633C67.3699 23.64 67.4606 23.6773 67.5353 23.752C67.6099 23.8267 67.6473 23.9173 67.6473 24.024V26.68H69.6473C69.7539 26.68 69.8446 26.7173 69.9193 26.792C69.9939 26.8667 70.0313 26.9573 70.0313 27.064V27.992C70.0313 28.0987 69.9939 28.1893 69.9193 28.264C69.8446 28.3387 69.7539 28.376 69.6473 28.376H67.6473V31.848C67.6473 32.2853 67.7219 32.6267 67.8713 32.872C68.0313 33.1173 68.3033 33.24 68.6873 33.24H69.7913C69.8979 33.24 69.9886 33.2773 70.0633 33.352C70.1379 33.4267 70.1753 33.5173 70.1753 33.624V34.616C70.1753 34.7227 70.1379 34.8133 70.0633 34.888C69.9886 34.9627 69.8979 35 69.7913 35H68.4953ZM75.0186 35.16C74.2506 35.16 73.5733 35.016 72.9866 34.728C72.4106 34.44 71.9573 34.024 71.6266 33.48C71.3066 32.9253 71.1306 32.2587 71.0986 31.48C71.088 31.32 71.0826 31.112 71.0826 30.856C71.0826 30.5893 71.088 30.3707 71.0986 30.2C71.1306 29.4213 71.3066 28.76 71.6266 28.216C71.9573 27.6613 72.4106 27.24 72.9866 26.952C73.5733 26.664 74.2506 26.52 75.0186 26.52C75.7013 26.52 76.2826 26.616 76.7626 26.808C77.2426 27 77.6373 27.24 77.9466 27.528C78.256 27.816 78.4853 28.12 78.6346 28.44C78.7946 28.7493 78.88 29.032 78.8906 29.288C78.9013 29.4053 78.864 29.5013 78.7786 29.576C78.704 29.64 78.6133 29.672 78.5066 29.672H77.0986C76.992 29.672 76.9066 29.6453 76.8426 29.592C76.7893 29.5387 76.736 29.4587 76.6826 29.352C76.5226 28.9253 76.3093 28.6267 76.0426 28.456C75.7866 28.2747 75.456 28.184 75.0506 28.184C74.5173 28.184 74.0906 28.3547 73.7706 28.696C73.4613 29.0267 73.296 29.5547 73.2746 30.28C73.2533 30.6853 73.2533 31.0587 73.2746 31.4C73.296 32.136 73.4613 32.6693 73.7706 33C74.0906 33.3307 74.5173 33.496 75.0506 33.496C75.4666 33.496 75.8026 33.4107 76.0586 33.24C76.3146 33.0587 76.5226 32.7547 76.6826 32.328C76.736 32.2213 76.7893 32.1413 76.8426 32.088C76.9066 32.0347 76.992 32.008 77.0986 32.008H78.5066C78.6133 32.008 78.704 32.0453 78.7786 32.12C78.864 32.184 78.9013 32.2747 78.8906 32.392C78.88 32.584 78.8266 32.8027 78.7306 33.048C78.6453 33.2827 78.5013 33.528 78.2986 33.784C78.1066 34.0293 77.8613 34.2587 77.5626 34.472C77.264 34.6747 76.9013 34.84 76.4746 34.968C76.0586 35.096 75.5733 35.16 75.0186 35.16ZM80.7833 35C80.6766 35 80.5859 34.9627 80.5113 34.888C80.4366 34.8133 80.3993 34.7227 80.3993 34.616V24.024C80.3993 23.9173 80.4366 23.8267 80.5113 23.752C80.5859 23.6773 80.6766 23.64 80.7833 23.64H82.2073C82.3246 23.64 82.4153 23.6773 82.4793 23.752C82.5539 23.8267 82.5913 23.9173 82.5913 24.024V27.672C82.8793 27.3307 83.2313 27.0533 83.6473 26.84C84.0633 26.6267 84.5753 26.52 85.1833 26.52C85.8339 26.52 86.3993 26.6693 86.8793 26.968C87.3699 27.256 87.7486 27.6667 88.0153 28.2C88.2819 28.7333 88.4153 29.3733 88.4153 30.12V34.616C88.4153 34.7227 88.3779 34.8133 88.3033 34.888C88.2286 34.9627 88.1379 35 88.0313 35H86.5913C86.4846 35 86.3939 34.9627 86.3193 34.888C86.2446 34.8133 86.2073 34.7227 86.2073 34.616V30.216C86.2073 29.5973 86.0526 29.112 85.7433 28.76C85.4446 28.408 85.0073 28.232 84.4313 28.232C83.8766 28.232 83.4286 28.408 83.0873 28.76C82.7566 29.112 82.5913 29.5973 82.5913 30.216V34.616C82.5913 34.7227 82.5539 34.8133 82.4793 34.888C82.4153 34.9627 82.3246 35 82.2073 35H80.7833ZM90.6537 35C90.5471 35 90.4564 34.9627 90.3817 34.888C90.3071 34.8133 90.2697 34.7227 90.2697 34.616V27.064C90.2697 26.9573 90.3071 26.8667 90.3817 26.792C90.4564 26.7173 90.5471 26.68 90.6537 26.68H91.9817C92.0991 26.68 92.1897 26.7173 92.2537 26.792C92.3284 26.8667 92.3657 26.9573 92.3657 27.064V34.616C92.3657 34.7227 92.3284 34.8133 92.2537 34.888C92.1897 34.9627 92.0991 35 91.9817 35H90.6537ZM90.5897 25.304C90.4724 25.304 90.3764 25.272 90.3017 25.208C90.2377 25.1333 90.2057 25.0373 90.2057 24.92V23.768C90.2057 23.6613 90.2377 23.5707 90.3017 23.496C90.3764 23.4213 90.4724 23.384 90.5897 23.384H92.0457C92.1631 23.384 92.2591 23.4213 92.3337 23.496C92.4084 23.5707 92.4457 23.6613 92.4457 23.768V24.92C92.4457 25.0373 92.4084 25.1333 92.3337 25.208C92.2591 25.272 92.1631 25.304 92.0457 25.304H90.5897ZM95.0246 35C94.918 35 94.8273 34.9627 94.7526 34.888C94.678 34.8133 94.6406 34.7227 94.6406 34.616V27.064C94.6406 26.9573 94.678 26.8667 94.7526 26.792C94.8273 26.7173 94.918 26.68 95.0246 26.68H96.3366C96.4433 26.68 96.534 26.7173 96.6086 26.792C96.6833 26.8667 96.7206 26.9573 96.7206 27.064V27.72C96.998 27.3787 97.35 27.096 97.7766 26.872C98.214 26.6373 98.7526 26.52 99.3926 26.52C100.043 26.52 100.609 26.6693 101.089 26.968C101.569 27.256 101.937 27.6667 102.193 28.2C102.459 28.7333 102.593 29.3733 102.593 30.12V34.616C102.593 34.7227 102.555 34.8133 102.481 34.888C102.406 34.9627 102.315 35 102.209 35H100.801C100.694 35 100.603 34.9627 100.529 34.888C100.454 34.8133 100.417 34.7227 100.417 34.616V30.216C100.417 29.5973 100.262 29.112 99.9526 28.76C99.654 28.408 99.2166 28.232 98.6406 28.232C98.086 28.232 97.6433 28.408 97.3126 28.76C96.982 29.112 96.8166 29.5973 96.8166 30.216V34.616C96.8166 34.7227 96.7793 34.8133 96.7046 34.888C96.63 34.9627 96.5393 35 96.4326 35H95.0246ZM108.209 38.52C107.43 38.52 106.79 38.4187 106.289 38.216C105.788 38.0133 105.393 37.768 105.105 37.48C104.817 37.192 104.609 36.904 104.481 36.616C104.364 36.3387 104.3 36.12 104.289 35.96C104.278 35.8533 104.31 35.7573 104.385 35.672C104.47 35.5973 104.566 35.56 104.673 35.56H106.065C106.172 35.56 106.257 35.5813 106.321 35.624C106.385 35.6773 106.438 35.768 106.481 35.896C106.545 36.0347 106.63 36.184 106.737 36.344C106.844 36.504 107.004 36.6373 107.217 36.744C107.441 36.8613 107.745 36.92 108.129 36.92C108.534 36.92 108.876 36.8613 109.153 36.744C109.43 36.6267 109.638 36.4293 109.777 36.152C109.926 35.8747 110.001 35.4907 110.001 35V33.912C109.745 34.2213 109.414 34.472 109.009 34.664C108.614 34.856 108.124 34.952 107.537 34.952C106.961 34.952 106.465 34.8613 106.049 34.68C105.633 34.488 105.286 34.2267 105.009 33.896C104.732 33.5547 104.518 33.1547 104.369 32.696C104.23 32.2373 104.15 31.7307 104.129 31.176C104.118 30.888 104.118 30.6 104.129 30.312C104.15 29.7787 104.23 29.2827 104.369 28.824C104.508 28.3653 104.716 27.9653 104.993 27.624C105.281 27.272 105.633 27 106.049 26.808C106.465 26.616 106.961 26.52 107.537 26.52C108.145 26.52 108.657 26.6373 109.073 26.872C109.489 27.096 109.83 27.3787 110.097 27.72V27.08C110.097 26.9627 110.134 26.8667 110.209 26.792C110.284 26.7173 110.374 26.68 110.481 26.68H111.777C111.884 26.68 111.974 26.7173 112.049 26.792C112.124 26.8667 112.161 26.9627 112.161 27.08L112.177 34.792C112.177 35.56 112.033 36.2213 111.745 36.776C111.457 37.3307 111.02 37.7573 110.433 38.056C109.857 38.3653 109.116 38.52 108.209 38.52ZM108.129 33.256C108.566 33.256 108.918 33.16 109.185 32.968C109.452 32.776 109.649 32.5253 109.777 32.216C109.905 31.9067 109.98 31.592 110.001 31.272C110.012 31.1333 110.017 30.9573 110.017 30.744C110.017 30.5307 110.012 30.36 110.001 30.232C109.98 29.9013 109.905 29.5867 109.777 29.288C109.649 28.9787 109.452 28.728 109.185 28.536C108.918 28.3333 108.566 28.232 108.129 28.232C107.692 28.232 107.34 28.3333 107.073 28.536C106.806 28.728 106.614 28.984 106.497 29.304C106.39 29.624 106.326 29.976 106.305 30.36C106.284 30.616 106.284 30.8773 106.305 31.144C106.326 31.5173 106.39 31.8693 106.497 32.2C106.614 32.52 106.806 32.776 107.073 32.968C107.34 33.16 107.692 33.256 108.129 33.256Z" fill="#1D609E"/>
<path d="M43.648 52C43.5307 52 43.4347 51.9627 43.36 51.888C43.2853 51.8133 43.248 51.7227 43.248 51.616V41.2C43.248 41.0827 43.2853 40.9867 43.36 40.912C43.4347 40.8373 43.5307 40.8 43.648 40.8H44.912C45.0613 40.8 45.1733 40.8427 45.248 40.928C45.3227 41.0027 45.3707 41.0613 45.392 41.104L48.48 46.864L51.6 41.104C51.6213 41.0613 51.6693 41.0027 51.744 40.928C51.8187 40.8427 51.9307 40.8 52.08 40.8H53.328C53.4453 40.8 53.5413 40.8373 53.616 40.912C53.6907 40.9867 53.728 41.0827 53.728 41.2V51.616C53.728 51.7227 53.6907 51.8133 53.616 51.888C53.5413 51.9627 53.4453 52 53.328 52H51.984C51.8667 52 51.7707 51.9627 51.696 51.888C51.632 51.8133 51.6 51.7227 51.6 51.616V44.688L49.36 48.96C49.3067 49.056 49.2373 49.1413 49.152 49.216C49.0667 49.28 48.9547 49.312 48.816 49.312H48.16C48.0107 49.312 47.8933 49.28 47.808 49.216C47.7333 49.1413 47.6693 49.056 47.616 48.96L45.376 44.688V51.616C45.376 51.7227 45.3387 51.8133 45.264 51.888C45.1893 51.9627 45.0987 52 44.992 52H43.648ZM58.2648 52.16C57.7101 52.16 57.2088 52.0533 56.7608 51.84C56.3128 51.616 55.9554 51.3227 55.6888 50.96C55.4328 50.5867 55.3048 50.1707 55.3048 49.712C55.3048 48.9653 55.6034 48.3733 56.2008 47.936C56.8088 47.488 57.6088 47.1893 58.6008 47.04L60.7928 46.72V46.384C60.7928 45.936 60.6808 45.5893 60.4568 45.344C60.2328 45.0987 59.8488 44.976 59.3048 44.976C58.9208 44.976 58.6061 45.056 58.3608 45.216C58.1261 45.3653 57.9501 45.568 57.8328 45.824C57.7474 45.9627 57.6248 46.032 57.4648 46.032H56.2008C56.0834 46.032 55.9928 46 55.9288 45.936C55.8754 45.872 55.8488 45.7867 55.8488 45.68C55.8594 45.5093 55.9288 45.3013 56.0568 45.056C56.1848 44.8107 56.3874 44.576 56.6648 44.352C56.9421 44.1173 57.2994 43.92 57.7368 43.76C58.1741 43.6 58.7021 43.52 59.3208 43.52C59.9928 43.52 60.5581 43.6053 61.0168 43.776C61.4861 43.936 61.8594 44.1547 62.1368 44.432C62.4141 44.7093 62.6168 45.0347 62.7448 45.408C62.8728 45.7813 62.9368 46.176 62.9368 46.592V51.616C62.9368 51.7227 62.8994 51.8133 62.8248 51.888C62.7501 51.9627 62.6594 52 62.5528 52H61.2568C61.1394 52 61.0434 51.9627 60.9688 51.888C60.9048 51.8133 60.8728 51.7227 60.8728 51.616V50.992C60.7341 51.1947 60.5474 51.3867 60.3128 51.568C60.0781 51.7387 59.7901 51.8827 59.4488 52C59.1181 52.1067 58.7234 52.16 58.2648 52.16ZM58.8088 50.64C59.1821 50.64 59.5181 50.56 59.8168 50.4C60.1261 50.24 60.3661 49.9947 60.5368 49.664C60.7181 49.3227 60.8088 48.896 60.8088 48.384V48.048L59.2088 48.304C58.5794 48.4 58.1101 48.5547 57.8008 48.768C57.4914 48.9813 57.3368 49.2427 57.3368 49.552C57.3368 49.7867 57.4061 49.9893 57.5448 50.16C57.6941 50.32 57.8808 50.4427 58.1048 50.528C58.3288 50.6027 58.5634 50.64 58.8088 50.64ZM68.4134 52.16C67.6454 52.16 66.968 52.016 66.3814 51.728C65.8054 51.44 65.352 51.024 65.0214 50.48C64.7014 49.9253 64.5254 49.2587 64.4934 48.48C64.4827 48.32 64.4774 48.112 64.4774 47.856C64.4774 47.5893 64.4827 47.3707 64.4934 47.2C64.5254 46.4213 64.7014 45.76 65.0214 45.216C65.352 44.6613 65.8054 44.24 66.3814 43.952C66.968 43.664 67.6454 43.52 68.4134 43.52C69.096 43.52 69.6774 43.616 70.1574 43.808C70.6374 44 71.032 44.24 71.3414 44.528C71.6507 44.816 71.88 45.12 72.0294 45.44C72.1894 45.7493 72.2747 46.032 72.2854 46.288C72.296 46.4053 72.2587 46.5013 72.1734 46.576C72.0987 46.64 72.008 46.672 71.9014 46.672H70.4934C70.3867 46.672 70.3014 46.6453 70.2374 46.592C70.184 46.5387 70.1307 46.4587 70.0774 46.352C69.9174 45.9253 69.704 45.6267 69.4374 45.456C69.1814 45.2747 68.8507 45.184 68.4454 45.184C67.912 45.184 67.4854 45.3547 67.1654 45.696C66.856 46.0267 66.6907 46.5547 66.6694 47.28C66.648 47.6853 66.648 48.0587 66.6694 48.4C66.6907 49.136 66.856 49.6693 67.1654 50C67.4854 50.3307 67.912 50.496 68.4454 50.496C68.8614 50.496 69.1974 50.4107 69.4534 50.24C69.7094 50.0587 69.9174 49.7547 70.0774 49.328C70.1307 49.2213 70.184 49.1413 70.2374 49.088C70.3014 49.0347 70.3867 49.008 70.4934 49.008H71.9014C72.008 49.008 72.0987 49.0453 72.1734 49.12C72.2587 49.184 72.296 49.2747 72.2854 49.392C72.2747 49.584 72.2214 49.8027 72.1254 50.048C72.04 50.2827 71.896 50.528 71.6934 50.784C71.5014 51.0293 71.256 51.2587 70.9574 51.472C70.6587 51.6747 70.296 51.84 69.8694 51.968C69.4534 52.096 68.968 52.16 68.4134 52.16ZM74.178 52C74.0713 52 73.9807 51.9627 73.906 51.888C73.8313 51.8133 73.794 51.7227 73.794 51.616V41.024C73.794 40.9173 73.8313 40.8267 73.906 40.752C73.9807 40.6773 74.0713 40.64 74.178 40.64H75.602C75.7193 40.64 75.81 40.6773 75.874 40.752C75.9487 40.8267 75.986 40.9173 75.986 41.024V44.672C76.274 44.3307 76.626 44.0533 77.042 43.84C77.458 43.6267 77.97 43.52 78.578 43.52C79.2287 43.52 79.794 43.6693 80.274 43.968C80.7647 44.256 81.1433 44.6667 81.41 45.2C81.6767 45.7333 81.81 46.3733 81.81 47.12V51.616C81.81 51.7227 81.7727 51.8133 81.698 51.888C81.6233 51.9627 81.5327 52 81.426 52H79.986C79.8793 52 79.7887 51.9627 79.714 51.888C79.6393 51.8133 79.602 51.7227 79.602 51.616V47.216C79.602 46.5973 79.4473 46.112 79.138 45.76C78.8393 45.408 78.402 45.232 77.826 45.232C77.2713 45.232 76.8233 45.408 76.482 45.76C76.1513 46.112 75.986 46.5973 75.986 47.216V51.616C75.986 51.7227 75.9487 51.8133 75.874 51.888C75.81 51.9627 75.7193 52 75.602 52H74.178ZM84.0485 52C83.9418 52 83.8512 51.9627 83.7765 51.888C83.7018 51.8133 83.6645 51.7227 83.6645 51.616V44.064C83.6645 43.9573 83.7018 43.8667 83.7765 43.792C83.8512 43.7173 83.9418 43.68 84.0485 43.68H85.3765C85.4938 43.68 85.5845 43.7173 85.6485 43.792C85.7232 43.8667 85.7605 43.9573 85.7605 44.064V51.616C85.7605 51.7227 85.7232 51.8133 85.6485 51.888C85.5845 51.9627 85.4938 52 85.3765 52H84.0485ZM83.9845 42.304C83.8672 42.304 83.7712 42.272 83.6965 42.208C83.6325 42.1333 83.6005 42.0373 83.6005 41.92V40.768C83.6005 40.6613 83.6325 40.5707 83.6965 40.496C83.7712 40.4213 83.8672 40.384 83.9845 40.384H85.4405C85.5578 40.384 85.6538 40.4213 85.7285 40.496C85.8032 40.5707 85.8405 40.6613 85.8405 40.768V41.92C85.8405 42.0373 85.8032 42.1333 85.7285 42.208C85.6538 42.272 85.5578 42.304 85.4405 42.304H83.9845ZM88.4194 52C88.3127 52 88.222 51.9627 88.1474 51.888C88.0727 51.8133 88.0354 51.7227 88.0354 51.616V44.064C88.0354 43.9573 88.0727 43.8667 88.1474 43.792C88.222 43.7173 88.3127 43.68 88.4194 43.68H89.7314C89.838 43.68 89.9287 43.7173 90.0034 43.792C90.078 43.8667 90.1154 43.9573 90.1154 44.064V44.72C90.3927 44.3787 90.7447 44.096 91.1714 43.872C91.6087 43.6373 92.1474 43.52 92.7874 43.52C93.438 43.52 94.0034 43.6693 94.4834 43.968C94.9634 44.256 95.3314 44.6667 95.5874 45.2C95.854 45.7333 95.9874 46.3733 95.9874 47.12V51.616C95.9874 51.7227 95.95 51.8133 95.8754 51.888C95.8007 51.9627 95.71 52 95.6034 52H94.1954C94.0887 52 93.998 51.9627 93.9234 51.888C93.8487 51.8133 93.8114 51.7227 93.8114 51.616V47.216C93.8114 46.5973 93.6567 46.112 93.3474 45.76C93.0487 45.408 92.6114 45.232 92.0354 45.232C91.4807 45.232 91.038 45.408 90.7074 45.76C90.3767 46.112 90.2114 46.5973 90.2114 47.216V51.616C90.2114 51.7227 90.174 51.8133 90.0994 51.888C90.0247 51.9627 89.934 52 89.8274 52H88.4194ZM101.428 52.16C100.244 52.16 99.3051 51.8187 98.6118 51.136C97.9184 50.4533 97.5451 49.4827 97.4918 48.224C97.4811 48.1173 97.4758 47.984 97.4758 47.824C97.4758 47.6533 97.4811 47.52 97.4918 47.424C97.5344 46.624 97.7158 45.9307 98.0358 45.344C98.3664 44.7573 98.8198 44.3093 99.3958 44C99.9718 43.68 100.649 43.52 101.428 43.52C102.292 43.52 103.017 43.7013 103.604 44.064C104.19 44.416 104.633 44.912 104.932 45.552C105.23 46.1813 105.38 46.912 105.38 47.744V48.08C105.38 48.1867 105.342 48.2773 105.268 48.352C105.193 48.4267 105.097 48.464 104.98 48.464H99.6678C99.6678 48.464 99.6678 48.48 99.6678 48.512C99.6678 48.544 99.6678 48.5707 99.6678 48.592C99.6784 48.9653 99.7478 49.312 99.8758 49.632C100.014 49.9413 100.212 50.192 100.468 50.384C100.734 50.576 101.049 50.672 101.412 50.672C101.71 50.672 101.961 50.6293 102.164 50.544C102.366 50.448 102.532 50.3413 102.66 50.224C102.788 50.1067 102.878 50.0107 102.932 49.936C103.028 49.808 103.102 49.7333 103.156 49.712C103.22 49.68 103.31 49.664 103.428 49.664H104.804C104.91 49.664 104.996 49.696 105.06 49.76C105.134 49.824 105.166 49.904 105.156 50C105.145 50.1707 105.054 50.3787 104.884 50.624C104.724 50.8693 104.489 51.1093 104.18 51.344C103.87 51.5787 103.481 51.776 103.012 51.936C102.553 52.0853 102.025 52.16 101.428 52.16ZM99.6678 47.12H103.204V47.072C103.204 46.656 103.134 46.2933 102.996 45.984C102.857 45.6747 102.654 45.4293 102.388 45.248C102.121 45.0667 101.801 44.976 101.428 44.976C101.054 44.976 100.734 45.0667 100.468 45.248C100.201 45.4293 99.9984 45.6747 99.8598 45.984C99.7318 46.2933 99.6678 46.656 99.6678 47.072V47.12Z" fill="#2684DA"/>
</svg>
